<svg width="136" height="63" viewBox="0 0 136 63" fill="none" xmlns="http://www.w3.org/2000/svg">
<path d="M36.6667 21H4.58333C2.0625 21 0 23.0625 0 25.5833V57.6667C0 60.1875 2.0625 62.25 4.58333 62.25H36.6667C39.1875 62.25 41.25 60.1875 41.25 57.6667V25.5833C41.25 23.0625 39.1875 21 36.6667 21ZM36.6667 57.6667H4.58333V25.5833H36.6667V57.6667ZM9.16667 37.0417H13.75V53.0833H9.16667V37.0417ZM18.3333 30.1667H22.9167V53.0833H18.3333V30.1667ZM27.5 43.9167H32.0833V53.0833H27.5V43.9167Z" fill="white"/>
<path d="M64.354 39.91C64.354 41.0713 64.0853 42.1287 63.548 43.082C63.0107 44.018 62.2133 44.7633 61.156 45.318C60.116 45.8727 58.8507 46.15 57.36 46.15H55.072V52H49.3V33.592H57.36C59.6133 33.592 61.338 34.164 62.534 35.308C63.7473 36.452 64.354 37.986 64.354 39.91ZM56.71 41.6C57.906 41.6 58.504 41.0367 58.504 39.91C58.504 38.7833 57.906 38.22 56.71 38.22H55.072V41.6H56.71ZM75.6228 52.182C74.1494 52.182 72.8234 51.8787 71.6448 51.272C70.4661 50.6653 69.5388 49.7987 68.8628 48.672C68.2041 47.528 67.8748 46.1933 67.8748 44.668C67.8748 43.1427 68.2041 41.8167 68.8628 40.69C69.5388 39.546 70.4661 38.6707 71.6448 38.064C72.8234 37.4573 74.1494 37.154 75.6228 37.154C77.0961 37.154 78.4221 37.4573 79.6008 38.064C80.7794 38.6707 81.6981 39.546 82.3568 40.69C83.0328 41.8167 83.3708 43.1427 83.3708 44.668C83.3708 46.1933 83.0328 47.528 82.3568 48.672C81.6981 49.7987 80.7794 50.6653 79.6008 51.272C78.4221 51.8787 77.0961 52.182 75.6228 52.182ZM75.6228 47.19C76.1601 47.19 76.6108 46.982 76.9748 46.566C77.3388 46.1327 77.5208 45.5 77.5208 44.668C77.5208 43.836 77.3388 43.212 76.9748 42.796C76.6108 42.3627 76.1601 42.146 75.6228 42.146C75.0854 42.146 74.6348 42.3627 74.2708 42.796C73.9068 43.212 73.7248 43.836 73.7248 44.668C73.7248 45.5 73.8981 46.1327 74.2448 46.566C74.6088 46.982 75.0681 47.19 75.6228 47.19ZM93.4261 32.76V52H87.6541V32.76H93.4261ZM104.275 32.76V52H98.503V32.76H104.275ZM112.264 36.166C111.259 36.166 110.453 35.8973 109.846 35.36C109.239 34.8227 108.936 34.1467 108.936 33.332C108.936 32.5 109.239 31.8153 109.846 31.278C110.453 30.7233 111.259 30.446 112.264 30.446C113.252 30.446 114.049 30.7233 114.656 31.278C115.263 31.8153 115.566 32.5 115.566 33.332C115.566 34.1467 115.263 34.8227 114.656 35.36C114.049 35.8973 113.252 36.166 112.264 36.166ZM115.124 37.336V52H109.352V37.336H115.124ZM127.169 52.182C125.695 52.182 124.369 51.8787 123.191 51.272C122.012 50.6653 121.085 49.7987 120.409 48.672C119.75 47.528 119.421 46.1933 119.421 44.668C119.421 43.1427 119.75 41.8167 120.409 40.69C121.085 39.546 122.012 38.6707 123.191 38.064C124.369 37.4573 125.695 37.154 127.169 37.154C128.642 37.154 129.968 37.4573 131.147 38.064C132.325 38.6707 133.244 39.546 133.903 40.69C134.579 41.8167 134.917 43.1427 134.917 44.668C134.917 46.1933 134.579 47.528 133.903 48.672C133.244 49.7987 132.325 50.6653 131.147 51.272C129.968 51.8787 128.642 52.182 127.169 52.182ZM127.169 47.19C127.706 47.19 128.157 46.982 128.521 46.566C128.885 46.1327 129.067 45.5 129.067 44.668C129.067 43.836 128.885 43.212 128.521 42.796C128.157 42.3627 127.706 42.146 127.169 42.146C126.631 42.146 126.181 42.3627 125.817 42.796C125.453 43.212 125.271 43.836 125.271 44.668C125.271 45.5 125.444 46.1327 125.791 46.566C126.155 46.982 126.614 47.19 127.169 47.19Z" fill="white"/>
</svg>
