<svg width="210" height="62" viewBox="0 0 210 62" fill="none" xmlns="http://www.w3.org/2000/svg">
<path d="M25.1827 30.8133C25.1827 33.5267 24.6551 35.8157 23.5999 37.6802C22.5447 39.5368 21.1205 40.9451 19.3274 41.9051C17.5343 42.8572 15.5349 43.3332 13.3292 43.3332C11.1077 43.3332 9.10038 42.8532 7.30728 41.8932C5.52211 40.9252 4.10191 39.513 3.04668 37.6564C1.99939 35.7919 1.47574 33.5109 1.47574 30.8133C1.47574 28.0998 1.99939 25.8148 3.04668 23.9582C4.10191 22.0937 5.52211 20.6854 7.30728 19.7333C9.10038 18.7733 11.1077 18.2933 13.3292 18.2933C15.5349 18.2933 17.5343 18.7733 19.3274 19.7333C21.1205 20.6854 22.5447 22.0937 23.5999 23.9582C24.6551 25.8148 25.1827 28.0998 25.1827 30.8133ZM18.3753 30.8133C18.3753 29.3534 18.1809 28.1236 17.7921 27.1239C17.4113 26.1163 16.844 25.3546 16.0903 24.8389C15.3445 24.3153 14.4241 24.0534 13.3292 24.0534C12.2343 24.0534 11.31 24.3153 10.5563 24.8389C9.81048 25.3546 9.24319 26.1163 8.85442 27.1239C8.47359 28.1236 8.28317 29.3534 8.28317 30.8133C8.28317 32.2731 8.47359 33.5069 8.85442 34.5145C9.24319 35.5142 9.81048 36.2759 10.5563 36.7995C11.31 37.3152 12.2343 37.5731 13.3292 37.5731C14.4241 37.5731 15.3445 37.3152 16.0903 36.7995C16.844 36.2759 17.4113 35.5142 17.7921 34.5145C18.1809 33.5069 18.3753 32.2731 18.3753 30.8133ZM28.2443 43V18.6265H38.7649C40.5738 18.6265 42.1567 18.9836 43.5134 19.6976C44.8701 20.4117 45.9254 21.4154 46.6791 22.7086C47.4328 24.0019 47.8097 25.5133 47.8097 27.2429C47.8097 28.9884 47.4209 30.4999 46.6434 31.7773C45.8738 33.0546 44.7908 34.0385 43.3944 34.7287C42.0059 35.419 40.3834 35.7641 38.5268 35.7641H32.2431V30.6229H37.1939C37.9715 30.6229 38.634 30.488 39.1814 30.2182C39.7368 29.9405 40.1613 29.5478 40.4548 29.04C40.7563 28.5322 40.9071 27.9332 40.9071 27.2429C40.9071 26.5447 40.7563 25.9497 40.4548 25.4578C40.1613 24.9579 39.7368 24.5771 39.1814 24.3153C38.634 24.0455 37.9715 23.9106 37.1939 23.9106H34.8613V43H28.2443ZM50.2375 43V18.6265H67.8036V23.9582H56.8545V28.1474H66.8991V33.4791H56.8545V37.6683H67.756V43H50.2375ZM92.1741 18.6265V43H86.6519L77.8451 30.1944H77.7023V43H71.0853V18.6265H76.7026L85.3666 31.3845H85.557V18.6265H92.1741ZM95.304 43V18.6265H105.825C107.634 18.6265 109.216 18.9836 110.573 19.6976C111.93 20.4117 112.985 21.4154 113.739 22.7086C114.493 24.0019 114.869 25.5133 114.869 27.2429C114.869 28.9884 114.481 30.4999 113.703 31.7773C112.934 33.0546 111.851 34.0385 110.454 34.7287C109.066 35.419 107.443 35.7641 105.587 35.7641H99.3028V30.6229H104.254C105.031 30.6229 105.694 30.488 106.241 30.2182C106.797 29.9405 107.221 29.5478 107.515 29.04C107.816 28.5322 107.967 27.9332 107.967 27.2429C107.967 26.5447 107.816 25.9497 107.515 25.4578C107.221 24.9579 106.797 24.5771 106.241 24.3153C105.694 24.0455 105.031 23.9106 104.254 23.9106H101.921V43H95.304ZM140.909 30.8133C140.909 33.5267 140.381 35.8157 139.326 37.6802C138.271 39.5368 136.847 40.9451 135.054 41.9051C133.261 42.8572 131.261 43.3332 129.056 43.3332C126.834 43.3332 124.827 42.8532 123.034 41.8932C121.248 40.9252 119.828 39.513 118.773 37.6564C117.726 35.7919 117.202 33.5109 117.202 30.8133C117.202 28.0998 117.726 25.8148 118.773 23.9582C119.828 22.0937 121.248 20.6854 123.034 19.7333C124.827 18.7733 126.834 18.2933 129.056 18.2933C131.261 18.2933 133.261 18.7733 135.054 19.7333C136.847 20.6854 138.271 22.0937 139.326 23.9582C140.381 25.8148 140.909 28.0998 140.909 30.8133ZM134.102 30.8133C134.102 29.3534 133.907 28.1236 133.518 27.1239C133.138 26.1163 132.57 25.3546 131.817 24.8389C131.071 24.3153 130.15 24.0534 129.056 24.0534C127.961 24.0534 127.036 24.3153 126.283 24.8389C125.537 25.3546 124.97 26.1163 124.581 27.1239C124.2 28.1236 124.01 29.3534 124.01 30.8133C124.01 32.2731 124.2 33.5069 124.581 34.5145C124.97 35.5142 125.537 36.2759 126.283 36.7995C127.036 37.3152 127.961 37.5731 129.056 37.5731C130.15 37.5731 131.071 37.3152 131.817 36.7995C132.57 36.2759 133.138 35.5142 133.518 34.5145C133.907 33.5069 134.102 32.2731 134.102 30.8133ZM143.971 43V18.6265H150.588V37.6683H160.442V43H143.971Z" fill="white"/>
<path d="M180.191 42.966V18.5926H173.574V37.6343H163.72V42.966H180.191Z" fill="white"/>
<rect x="152.334" y="36.0505" width="6.37829" height="3.46214" transform="rotate(-90 152.334 36.0505)" fill="#00A0FF"/>
<rect x="157.527" y="36.0506" width="14.8827" height="3.46214" transform="rotate(-90 157.527 36.0506)" fill="#00A0FF"/>
<rect x="162.721" y="36.0506" width="10.6305" height="3.46214" transform="rotate(-90 162.721 36.0506)" fill="#394DD0"/>
<rect x="167.914" y="36.0506" width="17.0088" height="3.46214" transform="rotate(-90 167.914 36.0506)" fill="#00A0FF"/>
</svg>
